<?xml version="1.0" standalone="no"?>
<!DOCTYPE svg PUBLIC "-//W3C//DTD SVG 20010904//EN"
 "http://www.w3.org/TR/2001/REC-SVG-20010904/DTD/svg10.dtd">
<svg version="1.0" xmlns="http://www.w3.org/2000/svg"
 width="410.000000pt" height="411.000000pt" viewBox="0 0 410.000000 411.000000"
 preserveAspectRatio="xMidYMid meet">
<metadata>
Created by potrace 1.11, written by Peter Selinger 2001-2013
</metadata>
<g transform="translate(0.000000,411.000000) scale(0.100000,-0.100000)"
fill="#000000" stroke="none">
<path d="M2975 3878 c-27 -5 -88 -27 -134 -50 -166 -80 -298 -250 -337 -438
-18 -85 -14 -216 9 -291 l14 -46 -71 -28 c-166 -63 -316 -205 -379 -357 -13
-31 -23 -39 -59 -48 -162 -42 -165 -44 -170 -105 l-3 -40 -674 -175 -673 -175
-74 -100 c-82 -111 -91 -145 -52 -189 21 -22 389 -226 410 -226 4 0 22 25 39
55 17 30 33 55 36 55 3 0 28 -13 55 -30 26 -17 52 -30 56 -30 4 0 38 51 75
114 l67 115 117 -69 117 -69 26 45 c41 70 42 70 103 35 l55 -31 71 17 72 17
32 58 c17 32 34 58 37 58 3 0 29 -16 59 -34 53 -33 54 -33 104 -20 33 8 63 26
88 50 36 35 37 39 32 88 -7 64 7 93 76 161 l51 49 0 97 c0 328 216 617 531
710 l64 19 -74 -3 -74 -2 -14 40 c-21 58 -28 193 -14 267 21 107 74 203 160
289 225 225 566 224 791 -1 107 -107 160 -235 160 -389 0 -151 -47 -273 -147
-382 -115 -125 -237 -179 -404 -182 l-96 -2 25 -32 c23 -31 28 -33 89 -33 180
0 386 113 493 270 241 354 62 846 -350 959 -81 23 -222 27 -315 9z"/>
<path d="M2355 2758 c-102 -135 -152 -294 -142 -454 l5 -82 -79 -78 c-44 -43
-79 -83 -79 -88 0 -6 12 -23 27 -38 l27 -29 -491 -492 -491 -492 -16 -121
c-18 -130 -15 -154 24 -189 21 -18 35 -20 174 -18 83 1 193 5 244 8 l92 7 0
69 0 69 65 0 65 0 0 135 0 135 135 0 135 0 0 65 0 65 68 0 68 0 52 53 52 53 0
67 0 67 67 0 67 0 53 52 53 52 28 -27 c15 -15 32 -27 37 -27 5 0 44 34 86 76
l77 77 129 1 c111 2 138 6 208 30 87 30 169 76 228 128 l38 33 -479 478 -479
479 -48 -64z"/>
</g>
</svg>
